<svg xmlns="http://www.w3.org/2000/svg" viewBox="0 0 512 512"><path fill="#F00" d="M256 470c-57.162 0-110.902-22.26-151.321-62.679S42 313.162 42 256s22.26-110.902 62.679-151.321S198.838 42 256 42s110.902 22.26 151.321 62.679S470 198.838 470 256s-22.26 110.902-62.679 151.321S313.162 470 256 470z"/><path d="M256 52c27.549 0 54.263 5.391 79.4 16.023 24.29 10.274 46.108 24.986 64.85 43.727 18.741 18.742 33.453 40.561 43.727 64.85C454.608 201.737 460 228.451 460 256s-5.392 54.263-16.023 79.4c-10.273 24.29-24.985 46.108-43.727 64.85-18.742 18.741-40.561 33.453-64.85 43.727C310.263 454.609 283.549 460 256 460s-54.263-5.391-79.4-16.023c-24.289-10.274-46.108-24.986-64.85-43.727-18.741-18.742-33.453-40.561-43.727-64.85C57.391 310.263 52 283.549 52 256s5.391-54.263 16.023-79.4c10.273-24.29 24.985-46.108 43.727-64.85 18.741-18.741 40.561-33.453 64.85-43.727C201.737 57.391 228.451 52 256 52m0-20C132.288 32 32 132.288 32 256s100.288 224 224 224 224-100.288 224-224S379.712 32 256 32z"/><g><path fill="#FFF" stroke="#000" stroke-width="4" stroke-miterlimit="10" d="M93.92 307.86H70L88.553 197h25.607l-6.133 36.494c1.993-1.993 10.58-8.126 22.847-8.126 20.24 0 31.741 14.106 31.741 34.5 0 28.827-21.008 49.987-47.228 49.987-11.807 0-18.553-5.674-20.393-8.28l-1.074 6.285zm21.62-20.393c11.807 0 21.007-9.507 21.007-23.307 0-9.66-5.366-16.253-14.414-16.253-11.653 0-21.006 9.046-21.006 23.459 0 8.894 4.906 16.101 14.413 16.101zM184.387 197h25.606l-18.554 110.86h-25.606L184.387 197z"/><path fill="#FFF" d="M244.059 280.995h-35.178l89.99-179.98-30.994 144.634h35.381l-90.316 164.999"/><path d="M293.614 116l-28.211 131.649h34.479l-81.498 148.889 28.21-117.544h-34.479L293.614 116m10.513-29.971l-14.091 28.182-81.498 162.995-2.895 5.789h35.878l-27.027 112.61-6.997 29.152 14.395-26.298L303.39 249.57l3.241-5.921H270.35l27.174-126.812 6.603-30.808z"/><path fill="#FFF" stroke="#000" stroke-width="4" stroke-miterlimit="10" d="M356.457 227.274h15.751l-3.642 20.699H352.93l-4.906 29.593c-1.227 7.054 3.22 8.74 8.434 8.74 1.379 0 2.606 0 4.293-.153l-3.68 21.927s-3.527.919-9.967.919c-19.014 0-28.521-8.74-24.534-32.66l4.753-28.367h-11.848l3.449-20.699h11.925l2.76-17.021h25.607l-2.759 17.022zM405.06 286.46h31.28l-3.527 21.313h-63.787l2.606-15.333 38.334-43.854H379.76l3.527-21.312H446l-2.607 15.486-38.333 43.7z"/></g></svg>