<?xml version="1.0" encoding="utf-8"?>
<!-- Generator: Adobe Illustrator 16.0.0, SVG Export Plug-In . SVG Version: 6.00 Build 0)  -->
<!DOCTYPE svg PUBLIC "-//W3C//DTD SVG 1.1//EN" "http://www.w3.org/Graphics/SVG/1.1/DTD/svg11.dtd">
<svg version="1.1" xmlns="http://www.w3.org/2000/svg" xmlns:xlink="http://www.w3.org/1999/xlink" x="0px" y="0px" width="2048px"
	 height="1154px" viewBox="0 0 2048 1154" enable-background="new 0 0 2048 1154" xml:space="preserve">
<g id="assets-16">
	<g>
		<polygon points="3017,826 3017.986,820 3012,828 3015,828 3014,834 3020,826 		"/>
	</g>
</g>
<g id="assets-32">
	<g>
		<polygon points="3026,786.075 3030,773 3020.007,788 3024,788 3020,800.921 3029.993,786.075 		"/>
	</g>
</g>
<g id="assets-64">
	<g>
		<path d="M2944,780.875c12.176,0,22.081,9.905,22.081,22.081c0,12.175-9.905,22.081-22.081,22.081s-22.081-9.905-22.081-22.081
			C2921.919,790.78,2931.824,780.875,2944,780.875 M2944,778.875c-13.3,0-24.081,10.781-24.081,24.081
			c0,13.299,10.781,24.081,24.081,24.081s24.081-10.781,24.081-24.081C2968.081,789.656,2957.3,778.875,2944,778.875L2944,778.875z"
			/>
	</g>
	<g>
		<polygon points="2947,799 2952,775.079 2934,807 2941,807 2936,831 2954,799 		"/>
	</g>
</g>
<g id="assets-128">
	<g>
		<path fill="#FF0000" d="M2976,720c-24.812,0-45-20.187-45-45s20.188-45,45-45c24.813,0,45,20.187,45,45S3000.813,720,2976,720z"/>
		<path d="M2976,633c23.159,0,42,18.841,42,42s-18.841,42-42,42s-42-18.841-42-42S2952.841,633,2976,633 M2976,627
			c-26.51,0-48,21.49-48,48s21.49,48,48,48s48-21.49,48-48S3002.51,627,2976,627L2976,627z"/>
	</g>
	<g>
		<polygon fill="#FFFFFF" points="2971.772,680 2961.398,680 2990.709,625.901 2980.265,670 2990.695,670 2961.269,723.265 		"/>
		<path d="M2988,633l-9,38h10l-25,45.253l9.044-37.253h-9.967L2988,633 M2993.418,618.801l-7.177,13.246l-24.923,46l-1.6,2.953
			h3.358h7.423l-8.443,34.781l-3.52,14.496l7.214-13.057l25-45.253l1.639-2.967H2989h-7.471l8.417-35.539L2993.418,618.801
			L2993.418,618.801z"/>
	</g>
</g>
<g id="assets-256">
	<g>
		<path fill="#FF0000" d="M2752,836c-53.486,0-97-43.514-97-97s43.514-97,97-97s97,43.514,97,97S2805.486,836,2752,836z"/>
		<path d="M2752,649c49.626,0,90,40.374,90,90s-40.374,90-90,90s-90-40.374-90-90S2702.374,649,2752,649 M2752,635
			c-57.438,0-104,46.562-104,104s46.562,104,104,104s104-46.562,104-104S2809.438,635,2752,635L2752,635z"/>
	</g>
	<g>
		<polygon fill="#FFFFFF" points="2743.463,755 2720.764,755 2781.256,634.015 2760.474,731 2783.374,731 2722.557,842.109 		"/>
		<path d="M2776,649l-18,84h22l-52,95l18-75h-22L2776,649 M2786.513,619.03l-14.09,28.181l-52,104l-2.895,5.789H2724h16.927
			l-16.816,70.066l-6.997,29.152l14.395-26.298l52-95l3.241-5.921H2780h-17.052l16.963-79.162L2786.513,619.03L2786.513,619.03z"/>
	</g>
</g>
<g id="assets-512">
	<g>
		<path fill="#FF0000" d="M2336,1081c-57.162,0-110.902-22.26-151.321-62.679C2144.26,977.902,2122,924.162,2122,867
			s22.26-110.902,62.679-151.321C2225.098,675.26,2278.838,653,2336,653s110.902,22.26,151.321,62.679
			C2527.74,756.098,2550,809.838,2550,867s-22.26,110.902-62.679,151.321C2446.902,1058.74,2393.162,1081,2336,1081z"/>
		<path d="M2336,663c27.549,0,54.263,5.391,79.4,16.023c24.29,10.274,46.108,24.986,64.85,43.727
			c18.741,18.742,33.453,40.561,43.727,64.85C2534.608,812.737,2540,839.451,2540,867s-5.392,54.263-16.023,79.4
			c-10.273,24.29-24.985,46.108-43.727,64.85c-18.742,18.741-40.561,33.453-64.85,43.727c-25.137,10.632-51.851,16.023-79.4,16.023
			s-54.263-5.391-79.4-16.023c-24.289-10.274-46.108-24.986-64.85-43.727c-18.741-18.742-33.453-40.561-43.727-64.85
			C2137.391,921.263,2132,894.549,2132,867s5.391-54.263,16.023-79.4c10.273-24.29,24.985-46.108,43.727-64.85
			c18.741-18.741,40.561-33.453,64.85-43.727C2281.737,668.391,2308.451,663,2336,663 M2336,643c-123.712,0-224,100.288-224,224
			s100.288,224,224,224s224-100.288,224-224S2459.712,643,2336,643L2336,643z"/>
	</g>
	<g id="logo">
		<path fill="#FFFFFF" stroke="#000000" stroke-width="4" stroke-miterlimit="10" d="M2173.92,918.86H2150L2168.553,808h25.607
			l-6.133,36.494c1.993-1.993,10.58-8.126,22.847-8.126c20.24,0,31.741,14.106,31.741,34.5c0,28.827-21.008,49.987-47.228,49.987
			c-11.807,0-18.553-5.674-20.393-8.28L2173.92,918.86z M2195.54,898.467c11.807,0,21.007-9.507,21.007-23.307
			c0-9.66-5.366-16.253-14.414-16.253c-11.653,0-21.006,9.046-21.006,23.459C2181.127,891.26,2186.033,898.467,2195.54,898.467z"/>
		<path fill="#FFFFFF" stroke="#000000" stroke-width="4" stroke-miterlimit="10" d="M2264.387,808h25.606l-18.554,110.86h-25.606
			L2264.387,808z"/>
		<g>
			<polygon fill="#FFFFFF" points="2324.059,891.995 2288.881,891.995 2378.871,712.015 2347.877,856.649 2383.258,856.649 
				2292.942,1021.648 			"/>
			<path d="M2373.614,727l-28.211,131.649h34.479l-81.498,148.889l28.21-117.544h-34.479L2373.614,727 M2384.127,697.029
				l-14.091,28.182l-81.498,162.995l-2.895,5.789h6.472h29.406l-27.027,112.61l-6.997,29.152l14.395-26.298l81.498-148.889
				l3.241-5.921h-6.75h-29.531l27.174-126.812L2384.127,697.029L2384.127,697.029z"/>
		</g>
		<path fill="#FFFFFF" stroke="#000000" stroke-width="4" stroke-miterlimit="10" d="M2436.457,838.274h15.751l-3.642,20.699
			h-15.637l-4.906,29.593c-1.227,7.054,3.22,8.74,8.434,8.74c1.379,0,2.606,0,4.293-0.153l-3.68,21.927c0,0-3.527,0.919-9.967,0.919
			c-19.014,0-28.521-8.74-24.534-32.66l4.753-28.367h-11.848l3.449-20.699h11.925l2.76-17.021h25.607L2436.457,838.274z"/>
		<path fill="#FFFFFF" stroke="#000000" stroke-width="4" stroke-miterlimit="10" d="M2485.06,897.46h31.28l-3.527,21.313h-63.787
			l2.606-15.333l38.334-43.854h-30.207l3.527-21.312H2526l-2.607,15.486L2485.06,897.46z"/>
	</g>
</g>
<g id="assets-1024">
	<g id="clarification-1024">
		<path fill="#ED1C24" d="M2658.479,457.678c19.266,0,28.765,11.774,28.765,29.57c0,5.352-1.069,9.366-1.471,10.571h-52.583
			c-1.739,12.443,5.887,20.469,18.33,20.469c10.17,0,17.127-5.886,20.472-9.767l8.964,7.226
			c-4.282,5.752-15.253,15.252-31.844,15.252c-19.267,0-30.773-12.712-30.773-30.506
			C2618.338,475.606,2636.936,457.678,2658.479,457.678z M2672.794,487.783c1.338-11.507-5.619-17.93-15.655-17.93
			c-10.035,0-18.865,6.958-21.674,17.93H2672.794z"/>
		<path fill="#ED1C24" d="M2708.646,432.523h14.585l-6.021,36.26c2.274-3.077,11.24-11.105,24.485-11.105
			c17.258,0,27.696,13.246,27.696,30.238c0,24.753-17.394,43.083-39.872,43.083c-13.514,0-20.337-8.43-21.809-10.838l-1.474,9.1
			h-13.78L2708.646,432.523z M2729.118,518.155c13.513,0,25.287-11.374,25.287-27.83c0-11.641-6.688-19.669-17.259-19.669
			c-13.379,0-25.288,12.175-25.288,28.499C2711.858,509.994,2718.013,518.155,2729.118,518.155z"/>
		<path fill="#ED1C24" d="M2819.292,457.678c19.132,0,31.712,13.246,31.712,31.176c0,23.681-19.805,42.146-43.487,42.146
			c-19.133,0-31.709-12.978-31.709-31.041C2775.808,476.143,2795.877,457.678,2819.292,457.678z M2809.392,518.022
			c14.584,0,26.894-12.042,26.894-27.429c0-11.507-7.493-19.937-19-19.937c-14.718,0-26.626,12.31-26.626,27.695
			C2790.659,509.859,2798.018,518.022,2809.392,518.022z"/>
		<path fill="#ED1C24" d="M2901.037,457.678c19.133,0,31.709,13.246,31.709,31.176c0,23.681-19.801,42.146-43.484,42.146
			c-19.133,0-31.71-12.978-31.71-31.041C2857.553,476.143,2877.622,457.678,2901.037,457.678z M2891.136,518.022
			c14.585,0,26.893-12.042,26.893-27.429c0-11.507-7.49-19.937-18.999-19.937c-14.718,0-26.625,12.31-26.625,27.695
			C2872.404,509.859,2879.763,518.022,2891.136,518.022z"/>
		<path fill="#ED1C24" d="M2954.551,432.523h14.583l-9.5,56.731l29.97-29.837H3007l-32.647,31.844l22.878,38h-16.188l-21.944-36.662
			l-6.155,36.662h-14.583L2954.551,432.523z"/>
	</g>
	<g id="logo-1024">
		<path fill="#FFFFFF" stroke="#000000" stroke-width="12" stroke-miterlimit="10" d="M2199.238,404.65H2128l55.255-330.159h76.261
			l-18.266,108.683c5.936-5.936,31.509-24.202,68.042-24.202c60.277,0,94.527,42.012,94.527,102.747
			c0,85.851-62.562,148.869-140.649,148.869c-35.163,0-55.255-16.896-60.736-24.659L2199.238,404.65z M2263.626,343.916
			c35.161,0,62.561-28.312,62.561-69.412c0-28.769-15.982-48.405-42.925-48.405c-34.705,0-62.561,26.943-62.561,69.867
			C2220.7,322.453,2235.313,343.916,2263.626,343.916z"/>
		<path fill="#FFFFFF" stroke="#000000" stroke-width="12" stroke-miterlimit="10" d="M2468.662,74.491h76.26l-55.255,330.159
			h-76.261L2468.662,74.491z"/>
		<polygon fill="#FFFFFF" stroke="#000000" stroke-width="12" stroke-miterlimit="10" points="2629,255 2651,125 2660,74 2580,74 
			2575,107 2548,257 2540,300 2586,300 2547,516 2666,255 		"/>
		<path fill="#FFFFFF" stroke="#000000" stroke-width="12" stroke-miterlimit="10" d="M2788.325,164.909h46.912l-10.846,61.648
			h-46.569l-14.612,88.133c-3.654,21.006,9.589,26.029,25.115,26.029c4.11,0,7.764,0,12.787-0.457l-10.959,65.302
			c0,0-10.503,2.739-29.682,2.739c-56.625,0-84.938-26.029-73.065-97.267l14.157-84.48h-35.286l10.274-61.648h35.514l8.22-50.689
			h76.261L2788.325,164.909z"/>
		<path fill="#FFFFFF" stroke="#000000" stroke-width="12" stroke-miterlimit="10" d="M2933.073,341.176h93.158l-10.503,63.474
			h-189.967l7.764-45.665l114.163-130.603h-89.962l10.504-63.474H3055l-7.764,46.121L2933.073,341.176z"/>
	</g>
</g>
<g id="assets-2048">
	<g id="clarification-2048">
		<path fill="#ED1C24" d="M1077.046,924.861c15.325,0,22.881,9.366,22.881,23.521c0,4.257-0.851,7.45-1.17,8.408h-41.827
			c-1.384,9.898,4.683,16.283,14.581,16.283c8.089,0,13.624-4.683,16.284-7.769l7.13,5.748c-3.406,4.576-12.133,12.133-25.33,12.133
			c-15.326,0-24.479-10.112-24.479-24.266C1045.116,939.122,1059.91,924.861,1077.046,924.861z M1088.433,948.808
			c1.065-9.153-4.47-14.262-12.452-14.262c-7.982,0-15.006,5.535-17.241,14.262H1088.433z"/>
		<path fill="#ED1C24" d="M1116.953,904.852h11.601l-4.789,28.842c1.809-2.448,8.94-8.833,19.477-8.833
			c13.729,0,22.03,10.536,22.03,24.053c0,19.69-13.835,34.271-31.715,34.271c-10.749,0-16.178-6.706-17.348-8.622l-1.171,7.238
			h-10.962L1116.953,904.852z M1133.236,972.967c10.75,0,20.115-9.047,20.115-22.137c0-9.26-5.321-15.646-13.729-15.646
			c-10.643,0-20.115,9.685-20.115,22.67C1119.507,966.475,1124.402,972.967,1133.236,972.967z"/>
		<path fill="#ED1C24" d="M1204.965,924.861c15.218,0,25.224,10.536,25.224,24.799c0,18.837-15.753,33.525-34.59,33.525
			c-15.22,0-25.224-10.324-25.224-24.691C1170.375,939.549,1186.34,924.861,1204.965,924.861z M1197.089,972.861
			c11.601,0,21.393-9.578,21.393-21.818c0-9.154-5.961-15.859-15.114-15.859c-11.707,0-21.179,9.792-21.179,22.031
			C1182.189,966.368,1188.042,972.861,1197.089,972.861z"/>
		<path fill="#ED1C24" d="M1269.989,924.861c15.219,0,25.223,10.536,25.223,24.799c0,18.837-15.751,33.525-34.589,33.525
			c-15.219,0-25.224-10.324-25.224-24.691C1235.399,939.549,1251.363,924.861,1269.989,924.861z M1262.113,972.861
			c11.601,0,21.392-9.578,21.392-21.818c0-9.154-5.959-15.859-15.113-15.859c-11.707,0-21.178,9.792-21.178,22.031
			C1247.214,966.368,1253.066,972.861,1262.113,972.861z"/>
		<path fill="#ED1C24" d="M1312.556,904.852h11.601l-7.557,45.126l23.839-23.734h13.837l-25.969,25.331l18.199,30.226h-12.877
			l-17.456-29.162l-4.896,29.162h-11.6L1312.556,904.852z"/>
		<path fill="#ED1C24" d="M1389.923,935.823h-6.066l1.597-9.579h6.065l0.426-2.448c2.448-14.155,12.24-18.838,22.139-18.838
			c2.235,0,4.044,0.213,4.044,0.213l-1.597,9.898c0,0-1.491-0.213-2.767-0.213c-5.641,0-9.046,2.874-10.217,9.152l-0.425,2.235
			h10.749l-1.597,9.579h-10.749l-7.663,45.979h-11.601L1389.923,935.823z"/>
		<path fill="#ED1C24" d="M1447.925,936.568c-12.133,0-17.136,9.259-19.158,21.286l-4.044,23.947h-11.602l9.26-55.557h11.388
			l-1.383,8.728c2.98-5.535,9.685-10.111,17.561-10.111L1447.925,936.568z"/>
		<path fill="#ED1C24" d="M1473.039,946.359c6.386,0,10.749,2.129,12.665,4.044l0.851-5.215c1.065-6.386-2.767-10.217-10.11-10.217
			c-6.173,0-11.601,2.129-15.965,4.363l-3.512-8.089c5.002-2.874,12.772-6.386,22.031-6.386c16.497,0,20.861,8.939,18.838,21.073
			l-5.96,35.867h-10.11l-0.214-4.151c-3.404,3.192-8.301,5.535-15.219,5.535c-10.537,0-18.199-6.279-18.199-15.965
			C1448.135,955.193,1458.884,946.359,1473.039,946.359z M1470.271,973.925c7.451,0,13.517-4.471,13.517-10.963
			c0-5.002-4.044-8.195-10.324-8.195c-7.769,0-13.517,4.683-13.517,10.856C1459.947,970.413,1463.886,973.925,1470.271,973.925z"/>
		<path fill="#ED1C24" d="M1582.55,981.801h-11.494l5.534-33.312c1.491-8.621-1.49-13.198-8.407-13.198
			c-6.493,0-12.133,4.79-13.517,13.304l-5.534,33.206h-11.602l5.748-34.377c1.278-7.557-2.022-12.133-8.621-12.133
			c-6.28,0-12.027,5.109-13.304,13.091l-5.64,33.419h-11.601l9.259-55.557h11.388c-0.746,4.684-1.171,7.238-1.171,7.238
			c2.769-4.258,8.94-8.622,16.497-8.622c7.77,0,12.665,3.619,14.368,9.26c4.258-5.854,11.069-9.26,18.732-9.26
			c12.559,0,17.454,8.622,15.432,20.647L1582.55,981.801z"/>
		<path fill="#ED1C24" d="M1627.884,924.861c15.326,0,22.882,9.366,22.882,23.521c0,4.257-0.851,7.45-1.171,8.408h-41.827
			c-1.383,9.898,4.683,16.283,14.582,16.283c8.089,0,13.624-4.683,16.283-7.769l7.131,5.748
			c-3.406,4.576-12.133,12.133-25.33,12.133c-15.327,0-24.48-10.112-24.48-24.266
			C1595.954,939.122,1610.748,924.861,1627.884,924.861z M1639.271,948.808c1.064-9.153-4.471-14.262-12.452-14.262
			c-7.983,0-15.006,5.535-17.243,14.262H1639.271z"/>
		<path fill="#ED1C24" d="M1698.761,941.996l-19.156,39.806h-12.772l-8.408-55.557h12.453l5.003,42.572
			c0,0-0.107-0.212,19.688-42.572h11.389l5.534,42.572l19.157-42.572h12.772l-26.927,55.557h-12.877L1698.761,941.996z"/>
		<path fill="#ED1C24" d="M1777.725,924.861c15.219,0,25.224,10.536,25.224,24.799c0,18.837-15.751,33.525-34.59,33.525
			c-15.219,0-25.223-10.324-25.223-24.691C1743.136,939.549,1759.101,924.861,1777.725,924.861z M1769.851,972.861
			c11.601,0,21.392-9.578,21.392-21.818c0-9.154-5.961-15.859-15.113-15.859c-11.707,0-21.179,9.792-21.179,22.031
			C1754.95,966.368,1760.804,972.861,1769.851,972.861z"/>
		<path fill="#ED1C24" d="M1842.217,936.568c-12.133,0-17.135,9.259-19.158,21.286l-4.044,23.947h-11.599l9.258-55.557h11.387
			l-1.383,8.728c2.979-5.535,9.685-10.111,17.56-10.111L1842.217,936.568z"/>
		<path fill="#ED1C24" d="M1856.156,904.852h11.601l-7.557,45.126l23.84-23.734h13.836l-25.969,25.331l18.199,30.226h-12.877
			l-17.455-29.162l-4.896,29.162h-11.601L1856.156,904.852z"/>
	</g>
	<g id="logo-2048">
		<path fill="#FFFFFF" stroke="#000000" stroke-width="20" stroke-miterlimit="10" d="M210.547,809.569H63l114.444-683.825h157.951
			l-37.833,225.104c12.295-12.295,65.261-50.129,140.926-50.129c124.848,0,195.784,87.016,195.784,212.81
			c0,177.813-129.577,308.335-291.312,308.335c-72.828,0-114.444-34.995-125.794-51.074L210.547,809.569z M343.907,683.776
			c72.828,0,129.577-58.641,129.577-143.765c0-59.586-33.104-100.256-88.907-100.256c-71.882,0-129.577,55.803-129.577,144.71
			C255.001,639.322,285.267,683.776,343.907,683.776z"/>
		<path fill="#FFFFFF" stroke="#000000" stroke-width="20" stroke-miterlimit="10" d="M768.577,125.744h157.951L812.084,809.569
			H654.133L768.577,125.744z"/>
		<polygon fill="#FFFFFF" stroke="#000000" stroke-width="20" stroke-miterlimit="10" points="1101,500 1145,230 1164,125.744 
			1001,125 989,194 931,504 914,595 1013,595 931,1042 1176,500 		"/>
		<path fill="#FFFFFF" stroke="#000000" stroke-width="20" stroke-miterlimit="10" d="M1430.664,313.016h97.163l-22.463,127.685
			h-96.454l-30.266,182.543c-7.566,43.507,19.863,53.911,52.02,53.911c8.512,0,16.08,0,26.483-0.945l-22.7,135.251
			c0,0-21.753,5.675-61.478,5.675c-117.281,0-175.922-53.912-151.331-201.458l29.32-174.976h-73.083l21.281-127.685h73.556
			l17.024-104.985h157.952L1430.664,313.016z"/>
		<path fill="#FFFFFF" stroke="#000000" stroke-width="20" stroke-miterlimit="10" d="M1730.466,678.101h192.947l-21.754,131.468
			H1508.2l16.079-94.582l236.454-270.503h-186.326l21.754-131.468H1983l-16.079,95.527L1730.466,678.101z"/>
	</g>
	<g>
	</g>
	<g>
	</g>
	<g>
	</g>
	<g>
	</g>
	<g>
	</g>
	<g>
	</g>
	<g>
	</g>
	<g>
	</g>
	<g>
	</g>
	<g>
	</g>
	<g>
	</g>
	<g>
	</g>
	<g>
	</g>
	<g>
	</g>
	<g>
	</g>
</g>
</svg>
