<?xml version="1.0" encoding="utf-8"?>
<!-- Generator: Adobe Illustrator 16.0.0, SVG Export Plug-In . SVG Version: 6.00 Build 0)  -->
<!DOCTYPE svg PUBLIC "-//W3C//DTD SVG 1.1//EN" "http://www.w3.org/Graphics/SVG/1.1/DTD/svg11.dtd">
<svg version="1.1" xmlns="http://www.w3.org/2000/svg" xmlns:xlink="http://www.w3.org/1999/xlink" x="0px" y="0px" width="1024px"
	 height="580px" viewBox="0 0 1024 580" enable-background="new 0 0 1024 580" xml:space="preserve">
<g id="assets-16">
	<g>
		<polygon points="937,826 937.986,820 932,828 935,828 934,834 940,826 		"/>
	</g>
</g>
<g id="assets-32">
	<g>
		<polygon points="946,786.075 950,773 940.007,788 944,788 940,800.921 949.993,786.075 		"/>
	</g>
</g>
<g id="assets-64">
	<g>
		<path d="M864,780.875c12.176,0,22.081,9.905,22.081,22.081c0,12.175-9.905,22.081-22.081,22.081s-22.081-9.905-22.081-22.081
			C841.919,790.78,851.824,780.875,864,780.875 M864,778.875c-13.3,0-24.081,10.781-24.081,24.081
			c0,13.299,10.781,24.081,24.081,24.081s24.081-10.781,24.081-24.081C888.081,789.656,877.3,778.875,864,778.875L864,778.875z"/>
	</g>
	<g>
		<polygon points="867,799 872,775.079 854,807 861,807 856,831 874,799 		"/>
	</g>
</g>
<g id="assets-128">
	<g>
		<path fill="#FF0000" d="M896,720c-24.812,0-45-20.187-45-45s20.188-45,45-45c24.813,0,45,20.187,45,45S920.813,720,896,720z"/>
		<path d="M896,633c23.159,0,42,18.841,42,42s-18.841,42-42,42s-42-18.841-42-42S872.841,633,896,633 M896,627
			c-26.51,0-48,21.49-48,48s21.49,48,48,48s48-21.49,48-48S922.51,627,896,627L896,627z"/>
	</g>
	<g>
		<polygon fill="#FFFFFF" points="891.772,680 881.398,680 910.709,625.901 900.265,670 910.695,670 881.269,723.265 		"/>
		<path d="M908,633l-9,38h10l-25,45.253L893.044,679h-9.967L908,633 M913.418,618.801l-7.177,13.246l-24.923,46l-1.6,2.953h3.358
			h7.423l-8.443,34.781l-3.52,14.496l7.214-13.057l25-45.253L912.39,669H909h-7.471l8.417-35.539L913.418,618.801L913.418,618.801z"
			/>
	</g>
</g>
<g id="assets-256">
	<g>
		<path fill="#FF0000" d="M672,836c-53.486,0-97-43.514-97-97s43.514-97,97-97s97,43.514,97,97S725.486,836,672,836z"/>
		<path d="M672,649c49.626,0,90,40.374,90,90s-40.374,90-90,90s-90-40.374-90-90S622.374,649,672,649 M672,635
			c-57.438,0-104,46.562-104,104s46.562,104,104,104s104-46.562,104-104S729.438,635,672,635L672,635z"/>
	</g>
	<g>
		<polygon fill="#FFFFFF" points="663.463,755 640.764,755 701.256,634.015 680.474,731 703.374,731 642.557,842.109 		"/>
		<path d="M696,649l-18,84h22l-52,95l18-75h-22L696,649 M706.513,619.03l-14.09,28.181l-52,104L637.528,757H644h16.927
			l-16.816,70.066l-6.997,29.152l14.395-26.298l52-95L706.75,729H700h-17.052l16.963-79.162L706.513,619.03L706.513,619.03z"/>
	</g>
</g>
<g id="assets-512">
	<g>
		<path fill="#FF0000" d="M256,1081c-57.162,0-110.902-22.26-151.321-62.679C64.26,977.902,42,924.162,42,867
			s22.26-110.902,62.679-151.321C145.098,675.26,198.838,653,256,653s110.902,22.26,151.321,62.679
			C447.74,756.098,470,809.838,470,867s-22.26,110.902-62.679,151.321C366.902,1058.74,313.162,1081,256,1081z"/>
		<path d="M256,663c27.549,0,54.263,5.391,79.4,16.023c24.29,10.274,46.108,24.986,64.85,43.727
			c18.741,18.742,33.453,40.561,43.727,64.85C454.608,812.737,460,839.451,460,867s-5.392,54.263-16.023,79.4
			c-10.273,24.29-24.985,46.108-43.727,64.85c-18.742,18.741-40.561,33.453-64.85,43.727C310.263,1065.609,283.549,1071,256,1071
			s-54.263-5.391-79.4-16.023c-24.289-10.274-46.108-24.986-64.85-43.727c-18.741-18.742-33.453-40.561-43.727-64.85
			C57.391,921.263,52,894.549,52,867s5.391-54.263,16.023-79.4c10.273-24.29,24.985-46.108,43.727-64.85
			c18.741-18.741,40.561-33.453,64.85-43.727C201.737,668.391,228.451,663,256,663 M256,643C132.288,643,32,743.288,32,867
			s100.288,224,224,224s224-100.288,224-224S379.712,643,256,643L256,643z"/>
	</g>
	<g id="logo">
		<path fill="#FFFFFF" stroke="#000000" stroke-width="4" stroke-miterlimit="10" d="M93.92,918.86H70L88.553,808h25.607
			l-6.133,36.494c1.993-1.993,10.58-8.126,22.847-8.126c20.24,0,31.741,14.106,31.741,34.5c0,28.827-21.008,49.987-47.228,49.987
			c-11.807,0-18.553-5.674-20.393-8.28L93.92,918.86z M115.54,898.467c11.807,0,21.007-9.507,21.007-23.307
			c0-9.66-5.366-16.253-14.414-16.253c-11.653,0-21.006,9.046-21.006,23.459C101.127,891.26,106.033,898.467,115.54,898.467z"/>
		<path fill="#FFFFFF" stroke="#000000" stroke-width="4" stroke-miterlimit="10" d="M184.387,808h25.606l-18.554,110.86h-25.606
			L184.387,808z"/>
		<g>
			<polygon fill="#FFFFFF" points="244.059,891.995 208.881,891.995 298.871,712.015 267.877,856.649 303.258,856.649 
				212.942,1021.648 			"/>
			<path d="M293.614,727l-28.211,131.649h34.479l-81.498,148.889l28.21-117.544h-34.479L293.614,727 M304.127,697.029
				l-14.091,28.182l-81.498,162.995l-2.895,5.789h6.472h29.406l-27.027,112.61l-6.997,29.152l14.395-26.298l81.498-148.889
				l3.241-5.921h-6.75h-29.531l27.174-126.812L304.127,697.029L304.127,697.029z"/>
		</g>
		<path fill="#FFFFFF" stroke="#000000" stroke-width="4" stroke-miterlimit="10" d="M356.457,838.274h15.751l-3.642,20.699H352.93
			l-4.906,29.593c-1.227,7.054,3.22,8.74,8.434,8.74c1.379,0,2.606,0,4.293-0.153l-3.68,21.927c0,0-3.527,0.919-9.967,0.919
			c-19.014,0-28.521-8.74-24.534-32.66l4.753-28.367h-11.848l3.449-20.699h11.925l2.76-17.021h25.607L356.457,838.274z"/>
		<path fill="#FFFFFF" stroke="#000000" stroke-width="4" stroke-miterlimit="10" d="M405.06,897.46h31.28l-3.527,21.313h-63.787
			l2.606-15.333l38.334-43.854H379.76l3.527-21.312H446l-2.607,15.486L405.06,897.46z"/>
	</g>
</g>
<g id="assets-1024">
	<g id="clarification-1024">
		<path fill="#ED1C24" d="M578.479,457.678c19.266,0,28.765,11.774,28.765,29.57c0,5.352-1.069,9.366-1.471,10.571h-52.583
			c-1.739,12.443,5.887,20.469,18.33,20.469c10.17,0,17.127-5.886,20.472-9.767l8.964,7.226C596.674,521.5,585.702,531,569.111,531
			c-19.267,0-30.773-12.712-30.773-30.506C538.338,475.606,556.936,457.678,578.479,457.678z M592.794,487.783
			c1.338-11.507-5.619-17.93-15.655-17.93c-10.035,0-18.865,6.958-21.674,17.93H592.794z"/>
		<path fill="#ED1C24" d="M628.646,432.523h14.585l-6.021,36.26c2.274-3.077,11.24-11.105,24.485-11.105
			c17.258,0,27.696,13.246,27.696,30.238c0,24.753-17.394,43.083-39.872,43.083c-13.514,0-20.337-8.43-21.809-10.838l-1.474,9.1
			h-13.78L628.646,432.523z M649.118,518.155c13.513,0,25.287-11.374,25.287-27.83c0-11.641-6.688-19.669-17.259-19.669
			c-13.379,0-25.288,12.175-25.288,28.499C631.858,509.994,638.013,518.155,649.118,518.155z"/>
		<path fill="#ED1C24" d="M739.292,457.678c19.132,0,31.712,13.246,31.712,31.176c0,23.681-19.805,42.146-43.487,42.146
			c-19.133,0-31.709-12.978-31.709-31.041C695.808,476.143,715.877,457.678,739.292,457.678z M729.392,518.022
			c14.584,0,26.894-12.042,26.894-27.429c0-11.507-7.493-19.937-19-19.937c-14.718,0-26.626,12.31-26.626,27.695
			C710.659,509.859,718.018,518.022,729.392,518.022z"/>
		<path fill="#ED1C24" d="M821.037,457.678c19.133,0,31.709,13.246,31.709,31.176c0,23.681-19.801,42.146-43.484,42.146
			c-19.133,0-31.71-12.978-31.71-31.041C777.553,476.143,797.622,457.678,821.037,457.678z M811.136,518.022
			c14.585,0,26.893-12.042,26.893-27.429c0-11.507-7.49-19.937-18.999-19.937c-14.718,0-26.625,12.31-26.625,27.695
			C792.404,509.859,799.763,518.022,811.136,518.022z"/>
		<path fill="#ED1C24" d="M874.551,432.523h14.583l-9.5,56.731l29.97-29.837H927l-32.647,31.844l22.878,38h-16.188L879.099,492.6
			l-6.155,36.662H858.36L874.551,432.523z"/>
	</g>
	<g id="logo-1024">
		<path fill="#FFFFFF" stroke="#000000" stroke-width="12" stroke-miterlimit="10" d="M119.238,404.65H48l55.255-330.159h76.261
			L161.25,183.174c5.936-5.936,31.509-24.202,68.042-24.202c60.277,0,94.527,42.012,94.527,102.747
			c0,85.851-62.562,148.869-140.649,148.869c-35.163,0-55.255-16.896-60.736-24.659L119.238,404.65z M183.626,343.916
			c35.161,0,62.561-28.312,62.561-69.412c0-28.769-15.982-48.405-42.925-48.405c-34.705,0-62.561,26.943-62.561,69.867
			C140.7,322.453,155.313,343.916,183.626,343.916z"/>
		<path fill="#FFFFFF" stroke="#000000" stroke-width="12" stroke-miterlimit="10" d="M388.662,74.491h76.26L409.667,404.65h-76.261
			L388.662,74.491z"/>
		<polygon fill="#FFFFFF" stroke="#000000" stroke-width="12" stroke-miterlimit="10" points="549,255 571,125 580,74 500,74 
			495,107 468,257 460,300 506,300 467,516 586,255 		"/>
		<path fill="#FFFFFF" stroke="#000000" stroke-width="12" stroke-miterlimit="10" d="M708.325,164.909h46.912l-10.846,61.648
			h-46.569L683.21,314.69c-3.654,21.006,9.589,26.029,25.115,26.029c4.11,0,7.764,0,12.787-0.457l-10.959,65.302
			c0,0-10.503,2.739-29.682,2.739c-56.625,0-84.938-26.029-73.065-97.267l14.157-84.48h-35.286l10.274-61.648h35.514l8.22-50.689
			h76.261L708.325,164.909z"/>
		<path fill="#FFFFFF" stroke="#000000" stroke-width="12" stroke-miterlimit="10" d="M853.073,341.176h93.158l-10.503,63.474
			H745.761l7.764-45.665l114.163-130.603h-89.962l10.504-63.474H975l-7.764,46.121L853.073,341.176z"/>
	</g>
</g>
<g id="assets-2048">
	<g id="clarification-2048">
		<path fill="#ED1C24" d="M-1002.954,924.861c15.325,0,22.881,9.366,22.881,23.521c0,4.257-0.851,7.45-1.17,8.408h-41.827
			c-1.384,9.898,4.683,16.283,14.581,16.283c8.089,0,13.624-4.683,16.284-7.769l7.13,5.748c-3.406,4.576-12.133,12.133-25.33,12.133
			c-15.326,0-24.479-10.112-24.479-24.266C-1034.884,939.122-1020.09,924.861-1002.954,924.861z M-991.567,948.808
			c1.065-9.153-4.47-14.262-12.452-14.262c-7.982,0-15.006,5.535-17.241,14.262H-991.567z"/>
		<path fill="#ED1C24" d="M-963.047,904.852h11.601l-4.789,28.842c1.809-2.448,8.94-8.833,19.477-8.833
			c13.729,0,22.03,10.536,22.03,24.053c0,19.69-13.835,34.271-31.715,34.271c-10.749,0-16.178-6.706-17.348-8.622l-1.171,7.238
			h-10.962L-963.047,904.852z M-946.764,972.967c10.75,0,20.115-9.047,20.115-22.137c0-9.26-5.321-15.646-13.729-15.646
			c-10.643,0-20.115,9.685-20.115,22.67C-960.493,966.475-955.598,972.967-946.764,972.967z"/>
		<path fill="#ED1C24" d="M-875.035,924.861c15.218,0,25.224,10.536,25.224,24.799c0,18.837-15.753,33.525-34.59,33.525
			c-15.22,0-25.224-10.324-25.224-24.691C-909.625,939.549-893.66,924.861-875.035,924.861z M-882.911,972.861
			c11.601,0,21.393-9.578,21.393-21.818c0-9.154-5.961-15.859-15.114-15.859c-11.707,0-21.179,9.792-21.179,22.031
			C-897.811,966.368-891.958,972.861-882.911,972.861z"/>
		<path fill="#ED1C24" d="M-810.011,924.861c15.219,0,25.223,10.536,25.223,24.799c0,18.837-15.751,33.525-34.589,33.525
			c-15.219,0-25.224-10.324-25.224-24.691C-844.601,939.549-828.637,924.861-810.011,924.861z M-817.887,972.861
			c11.601,0,21.392-9.578,21.392-21.818c0-9.154-5.959-15.859-15.113-15.859c-11.707,0-21.178,9.792-21.178,22.031
			C-832.786,966.368-826.934,972.861-817.887,972.861z"/>
		<path fill="#ED1C24" d="M-767.444,904.852h11.601l-7.557,45.126l23.839-23.734h13.837l-25.969,25.331l18.199,30.226h-12.877
			l-17.456-29.162l-4.896,29.162h-11.6L-767.444,904.852z"/>
		<path fill="#ED1C24" d="M-690.077,935.823h-6.066l1.597-9.579h6.065l0.426-2.448c2.448-14.155,12.24-18.838,22.139-18.838
			c2.235,0,4.044,0.213,4.044,0.213l-1.597,9.898c0,0-1.491-0.213-2.767-0.213c-5.641,0-9.046,2.874-10.217,9.152l-0.425,2.235
			h10.749l-1.597,9.579h-10.749l-7.663,45.979h-11.601L-690.077,935.823z"/>
		<path fill="#ED1C24" d="M-632.075,936.568c-12.133,0-17.136,9.259-19.158,21.286l-4.044,23.947h-11.602l9.26-55.557h11.388
			l-1.383,8.728c2.98-5.535,9.685-10.111,17.561-10.111L-632.075,936.568z"/>
		<path fill="#ED1C24" d="M-606.961,946.359c6.386,0,10.749,2.129,12.665,4.044l0.851-5.215c1.065-6.386-2.767-10.217-10.11-10.217
			c-6.173,0-11.601,2.129-15.965,4.363l-3.512-8.089c5.002-2.874,12.772-6.386,22.031-6.386c16.497,0,20.861,8.939,18.838,21.073
			l-5.96,35.867h-10.11l-0.214-4.151c-3.404,3.192-8.301,5.535-15.219,5.535c-10.537,0-18.199-6.279-18.199-15.965
			C-631.865,955.193-621.116,946.359-606.961,946.359z M-609.729,973.925c7.451,0,13.517-4.471,13.517-10.963
			c0-5.002-4.044-8.195-10.324-8.195c-7.769,0-13.517,4.683-13.517,10.856C-620.053,970.413-616.114,973.925-609.729,973.925z"/>
		<path fill="#ED1C24" d="M-497.45,981.801h-11.494l5.534-33.312c1.491-8.621-1.49-13.198-8.407-13.198
			c-6.493,0-12.133,4.79-13.517,13.304l-5.534,33.206h-11.602l5.748-34.377c1.278-7.557-2.022-12.133-8.621-12.133
			c-6.28,0-12.027,5.109-13.304,13.091l-5.64,33.419h-11.601l9.259-55.557h11.388c-0.746,4.684-1.171,7.238-1.171,7.238
			c2.769-4.258,8.94-8.622,16.497-8.622c7.77,0,12.665,3.619,14.368,9.26c4.258-5.854,11.069-9.26,18.732-9.26
			c12.559,0,17.454,8.622,15.432,20.647L-497.45,981.801z"/>
		<path fill="#ED1C24" d="M-452.116,924.861c15.326,0,22.882,9.366,22.882,23.521c0,4.257-0.851,7.45-1.171,8.408h-41.827
			c-1.383,9.898,4.683,16.283,14.582,16.283c8.089,0,13.624-4.683,16.283-7.769l7.131,5.748
			c-3.406,4.576-12.133,12.133-25.33,12.133c-15.327,0-24.48-10.112-24.48-24.266C-484.046,939.122-469.252,924.861-452.116,924.861
			z M-440.729,948.808c1.064-9.153-4.471-14.262-12.452-14.262c-7.983,0-15.006,5.535-17.243,14.262H-440.729z"/>
		<path fill="#ED1C24" d="M-381.239,941.996l-19.156,39.806h-12.772l-8.408-55.557h12.453l5.003,42.572
			c0,0-0.107-0.212,19.688-42.572h11.389l5.534,42.572l19.157-42.572h12.772l-26.927,55.557h-12.877L-381.239,941.996z"/>
		<path fill="#ED1C24" d="M-302.275,924.861c15.219,0,25.224,10.536,25.224,24.799c0,18.837-15.751,33.525-34.59,33.525
			c-15.219,0-25.223-10.324-25.223-24.691C-336.864,939.549-320.899,924.861-302.275,924.861z M-310.149,972.861
			c11.601,0,21.392-9.578,21.392-21.818c0-9.154-5.961-15.859-15.113-15.859c-11.707,0-21.179,9.792-21.179,22.031
			C-325.05,966.368-319.196,972.861-310.149,972.861z"/>
		<path fill="#ED1C24" d="M-237.783,936.568c-12.133,0-17.135,9.259-19.158,21.286l-4.044,23.947h-11.599l9.258-55.557h11.387
			l-1.383,8.728c2.979-5.535,9.685-10.111,17.56-10.111L-237.783,936.568z"/>
		<path fill="#ED1C24" d="M-223.844,904.852h11.601l-7.557,45.126l23.84-23.734h13.836l-25.969,25.331l18.199,30.226h-12.877
			l-17.455-29.162l-4.896,29.162h-11.601L-223.844,904.852z"/>
	</g>
	<g id="logo-2048">
		<path fill="#FFFFFF" stroke="#000000" stroke-width="20" stroke-miterlimit="10" d="M-1869.453,809.569H-2017l114.444-683.825
			h157.951l-37.833,225.104c12.295-12.295,65.261-50.129,140.926-50.129c124.848,0,195.784,87.016,195.784,212.81
			c0,177.813-129.577,308.335-291.312,308.335c-72.828,0-114.444-34.995-125.794-51.074L-1869.453,809.569z M-1736.093,683.776
			c72.828,0,129.577-58.641,129.577-143.765c0-59.586-33.104-100.256-88.907-100.256c-71.882,0-129.577,55.803-129.577,144.71
			C-1824.999,639.322-1794.733,683.776-1736.093,683.776z"/>
		<path fill="#FFFFFF" stroke="#000000" stroke-width="20" stroke-miterlimit="10" d="M-1311.423,125.744h157.951l-114.444,683.825
			h-157.951L-1311.423,125.744z"/>
		<polygon fill="#FFFFFF" stroke="#000000" stroke-width="20" stroke-miterlimit="10" points="-979,500 -935,230 -916,125.744 
			-1079,125 -1091,194 -1149,504 -1166,595 -1067,595 -1149,1042 -904,500 		"/>
		<path fill="#FFFFFF" stroke="#000000" stroke-width="20" stroke-miterlimit="10" d="M-649.336,313.016h97.163l-22.463,127.685
			h-96.454l-30.266,182.543c-7.566,43.507,19.863,53.911,52.02,53.911c8.512,0,16.08,0,26.483-0.945l-22.7,135.251
			c0,0-21.753,5.675-61.478,5.675c-117.281,0-175.922-53.912-151.331-201.458l29.32-174.976h-73.083l21.281-127.685h73.556
			l17.024-104.985h157.952L-649.336,313.016z"/>
		<path fill="#FFFFFF" stroke="#000000" stroke-width="20" stroke-miterlimit="10" d="M-349.534,678.101h192.947l-21.754,131.468
			H-571.8l16.079-94.582l236.454-270.503h-186.326l21.754-131.468H-97l-16.079,95.527L-349.534,678.101z"/>
	</g>
	<g>
	</g>
	<g>
	</g>
	<g>
	</g>
	<g>
	</g>
	<g>
	</g>
	<g>
	</g>
	<g>
	</g>
	<g>
	</g>
	<g>
	</g>
	<g>
	</g>
	<g>
	</g>
	<g>
	</g>
	<g>
	</g>
	<g>
	</g>
	<g>
	</g>
</g>
</svg>
