<?xml version="1.0" encoding="utf-8"?>
<!-- Generator: Adobe Illustrator 16.0.0, SVG Export Plug-In . SVG Version: 6.00 Build 0)  -->
<!DOCTYPE svg PUBLIC "-//W3C//DTD SVG 1.1//EN" "http://www.w3.org/Graphics/SVG/1.1/DTD/svg11.dtd">
<svg version="1.1" xmlns="http://www.w3.org/2000/svg" xmlns:xlink="http://www.w3.org/1999/xlink" x="0px" y="0px" width="32px"
	 height="32px" viewBox="0 0 32 32" enable-background="new 0 0 32 32" xml:space="preserve">
<g id="assets-16">
	<g>
		<polygon points="9,55 9.986,49 4,57 7,57 6,63 12,55 		"/>
	</g>
</g>
<g id="assets-32">
	<g>
		<polygon points="18,15.075 22,2 12.007,17 16,17 12,29.921 21.993,15.075 		"/>
	</g>
</g>
<g id="assets-64">
	<g>
		<path d="M-64,9.875c12.176,0,22.081,9.905,22.081,22.081c0,12.175-9.905,22.081-22.081,22.081s-22.081-9.905-22.081-22.081
			C-86.081,19.78-76.176,9.875-64,9.875 M-64,7.875c-13.3,0-24.081,10.781-24.081,24.081c0,13.299,10.781,24.081,24.081,24.081
			s24.081-10.781,24.081-24.081C-39.919,18.656-50.7,7.875-64,7.875L-64,7.875z"/>
	</g>
	<g>
		<polygon points="-61,28 -56,4.079 -74,36 -67,36 -72,60 -54,28 		"/>
	</g>
</g>
<g id="assets-128">
	<g>
		<path fill="#FF0000" d="M-32-51c-24.812,0-45-20.187-45-45s20.188-45,45-45c24.813,0,45,20.187,45,45S-7.187-51-32-51z"/>
		<path d="M-32-138c23.159,0,42,18.841,42,42S-8.841-54-32-54s-42-18.841-42-42S-55.159-138-32-138 M-32-144
			c-26.51,0-48,21.49-48,48s21.49,48,48,48s48-21.49,48-48S-5.49-144-32-144L-32-144z"/>
	</g>
	<g>
		<polygon fill="#FFFFFF" points="-36.228,-91 -46.602,-91 -17.291,-145.099 -27.735,-101 -17.305,-101 -46.731,-47.735 		"/>
		<path d="M-20-138l-9,38h10l-25,45.253L-34.956-92h-9.967L-20-138 M-14.582-152.199l-7.177,13.246l-24.923,46l-1.6,2.953h3.358
			h7.423l-8.443,34.781l-3.52,14.496l7.214-13.057l25-45.253L-15.61-102H-19h-7.471l8.417-35.539L-14.582-152.199L-14.582-152.199z"
			/>
	</g>
</g>
<g id="assets-256">
	<g>
		<path fill="#FF0000" d="M-256,65c-53.486,0-97-43.514-97-97s43.514-97,97-97s97,43.514,97,97S-202.514,65-256,65z"/>
		<path d="M-256-122c49.626,0,90,40.374,90,90s-40.374,90-90,90s-90-40.374-90-90S-305.626-122-256-122 M-256-136
			c-57.438,0-104,46.562-104,104s46.562,104,104,104s104-46.562,104-104S-198.562-136-256-136L-256-136z"/>
	</g>
	<g>
		<polygon fill="#FFFFFF" points="-264.537,-16 -287.236,-16 -226.744,-136.985 -247.526,-40 -224.626,-40 -285.443,71.109 		"/>
		<path d="M-232-122l-18,84h22l-52,95l18-75h-22L-232-122 M-221.487-151.97l-14.09,28.181l-52,104L-290.472-14H-284h16.927
			l-16.816,70.066l-6.997,29.152l14.395-26.298l52-95L-221.25-42H-228h-17.052l16.963-79.162L-221.487-151.97L-221.487-151.97z"/>
	</g>
</g>
<g id="assets-512">
	<g>
		<path fill="#FF0000" d="M-672,310c-57.162,0-110.902-22.26-151.321-62.679C-863.74,206.902-886,153.162-886,96
			s22.26-110.902,62.679-151.321C-782.902-95.74-729.162-118-672-118s110.902,22.26,151.321,62.679
			C-480.26-14.902-458,38.838-458,96s-22.26,110.902-62.679,151.321C-561.098,287.74-614.838,310-672,310z"/>
		<path d="M-672-108c27.549,0,54.263,5.391,79.4,16.023c24.29,10.274,46.108,24.986,64.85,43.727
			c18.741,18.742,33.453,40.561,43.727,64.85C-473.392,41.737-468,68.451-468,96s-5.392,54.263-16.023,79.4
			c-10.273,24.29-24.985,46.108-43.727,64.85c-18.742,18.741-40.561,33.453-64.85,43.727C-617.737,294.609-644.451,300-672,300
			s-54.263-5.391-79.4-16.023c-24.289-10.274-46.108-24.986-64.85-43.727c-18.741-18.742-33.453-40.561-43.727-64.85
			C-870.609,150.263-876,123.549-876,96s5.391-54.263,16.023-79.4c10.273-24.29,24.985-46.108,43.727-64.85
			c18.741-18.741,40.561-33.453,64.85-43.727C-726.263-102.609-699.549-108-672-108 M-672-128c-123.712,0-224,100.288-224,224
			s100.288,224,224,224s224-100.288,224-224S-548.288-128-672-128L-672-128z"/>
	</g>
	<g id="logo">
		<path fill="#FFFFFF" stroke="#000000" stroke-width="4" stroke-miterlimit="10" d="M-834.08,147.86H-858L-839.447,37h25.607
			l-6.133,36.494c1.993-1.993,10.58-8.126,22.847-8.126c20.24,0,31.741,14.106,31.741,34.5c0,28.827-21.008,49.987-47.228,49.987
			c-11.807,0-18.553-5.674-20.393-8.28L-834.08,147.86z M-812.46,127.467c11.807,0,21.007-9.507,21.007-23.307
			c0-9.66-5.366-16.253-14.414-16.253c-11.653,0-21.006,9.046-21.006,23.459C-826.873,120.26-821.967,127.467-812.46,127.467z"/>
		<path fill="#FFFFFF" stroke="#000000" stroke-width="4" stroke-miterlimit="10" d="M-743.613,37h25.606l-18.554,110.86h-25.606
			L-743.613,37z"/>
		<g>
			<polygon fill="#FFFFFF" points="-683.941,120.995 -719.119,120.995 -629.129,-58.985 -660.123,85.649 -624.742,85.649 
				-715.058,250.648 			"/>
			<path d="M-634.386-44l-28.211,131.649h34.479l-81.498,148.889l28.21-117.544h-34.479L-634.386-44 M-623.873-73.971
				l-14.091,28.182l-81.498,162.995l-2.895,5.789h6.472h29.406l-27.027,112.61l-6.997,29.152l14.395-26.298l81.498-148.889
				l3.241-5.921h-6.75h-29.531l27.174-126.812L-623.873-73.971L-623.873-73.971z"/>
		</g>
		<path fill="#FFFFFF" stroke="#000000" stroke-width="4" stroke-miterlimit="10" d="M-571.543,67.274h15.751l-3.642,20.699h-15.637
			l-4.906,29.593c-1.227,7.054,3.22,8.74,8.434,8.74c1.379,0,2.606,0,4.293-0.153l-3.68,21.927c0,0-3.527,0.919-9.967,0.919
			c-19.014,0-28.521-8.74-24.534-32.66l4.753-28.367h-11.848l3.449-20.699h11.925l2.76-17.021h25.607L-571.543,67.274z"/>
		<path fill="#FFFFFF" stroke="#000000" stroke-width="4" stroke-miterlimit="10" d="M-522.94,126.46h31.28l-3.527,21.313h-63.787
			l2.606-15.333l38.334-43.854h-30.207l3.527-21.312H-482l-2.607,15.486L-522.94,126.46z"/>
	</g>
</g>
<g id="assets-1024">
	<g id="clarification-1024">
		<path fill="#ED1C24" d="M-349.521-313.322c19.266,0,28.765,11.774,28.765,29.57c0,5.352-1.069,9.366-1.471,10.571h-52.583
			c-1.739,12.443,5.887,20.469,18.33,20.469c10.17,0,17.127-5.886,20.472-9.767l8.964,7.226C-331.326-249.5-342.298-240-358.889-240
			c-19.267,0-30.773-12.712-30.773-30.506C-389.662-295.394-371.064-313.322-349.521-313.322z M-335.206-283.217
			c1.338-11.507-5.619-17.93-15.655-17.93c-10.035,0-18.865,6.958-21.674,17.93H-335.206z"/>
		<path fill="#ED1C24" d="M-299.354-338.477h14.585l-6.021,36.26c2.274-3.077,11.24-11.105,24.485-11.105
			c17.258,0,27.696,13.246,27.696,30.238c0,24.753-17.394,43.083-39.872,43.083c-13.514,0-20.337-8.43-21.809-10.838l-1.474,9.1
			h-13.78L-299.354-338.477z M-278.882-252.845c13.513,0,25.287-11.374,25.287-27.83c0-11.641-6.688-19.669-17.259-19.669
			c-13.379,0-25.288,12.175-25.288,28.499C-296.142-261.006-289.987-252.845-278.882-252.845z"/>
		<path fill="#ED1C24" d="M-188.708-313.322c19.132,0,31.712,13.246,31.712,31.176c0,23.681-19.805,42.146-43.487,42.146
			c-19.133,0-31.709-12.978-31.709-31.041C-232.192-294.857-212.123-313.322-188.708-313.322z M-198.608-252.978
			c14.584,0,26.894-12.042,26.894-27.429c0-11.507-7.493-19.937-19-19.937c-14.718,0-26.626,12.31-26.626,27.695
			C-217.341-261.141-209.982-252.978-198.608-252.978z"/>
		<path fill="#ED1C24" d="M-106.963-313.322c19.133,0,31.709,13.246,31.709,31.176c0,23.681-19.801,42.146-43.484,42.146
			c-19.133,0-31.71-12.978-31.71-31.041C-150.447-294.857-130.378-313.322-106.963-313.322z M-116.864-252.978
			c14.585,0,26.893-12.042,26.893-27.429c0-11.507-7.49-19.937-18.999-19.937c-14.718,0-26.625,12.31-26.625,27.695
			C-135.596-261.141-128.237-252.978-116.864-252.978z"/>
		<path fill="#ED1C24" d="M-53.449-338.477h14.583l-9.5,56.731l29.97-29.837H-1l-32.647,31.844l22.878,38h-16.188L-48.901-278.4
			l-6.155,36.662H-69.64L-53.449-338.477z"/>
	</g>
	<g id="logo-1024">
		<path fill="#FFFFFF" stroke="#000000" stroke-width="12" stroke-miterlimit="10" d="M-808.762-366.35H-880l55.255-330.159h76.261
			l-18.266,108.683c5.936-5.936,31.509-24.202,68.042-24.202c60.277,0,94.527,42.012,94.527,102.747
			c0,85.851-62.562,148.869-140.649,148.869c-35.163,0-55.255-16.896-60.736-24.659L-808.762-366.35z M-744.374-427.084
			c35.161,0,62.561-28.312,62.561-69.412c0-28.769-15.982-48.405-42.925-48.405c-34.705,0-62.561,26.943-62.561,69.867
			C-787.3-448.547-772.687-427.084-744.374-427.084z"/>
		<path fill="#FFFFFF" stroke="#000000" stroke-width="12" stroke-miterlimit="10" d="M-539.338-696.509h76.26l-55.255,330.159
			h-76.261L-539.338-696.509z"/>
		<polygon fill="#FFFFFF" stroke="#000000" stroke-width="12" stroke-miterlimit="10" points="-379,-516 -357,-646 -348,-697 
			-428,-697 -433,-664 -460,-514 -468,-471 -422,-471 -461,-255 -342,-516 		"/>
		<path fill="#FFFFFF" stroke="#000000" stroke-width="12" stroke-miterlimit="10" d="M-219.675-606.091h46.912l-10.846,61.648
			h-46.569l-14.612,88.133c-3.654,21.006,9.589,26.029,25.115,26.029c4.11,0,7.764,0,12.787-0.457l-10.959,65.302
			c0,0-10.503,2.739-29.682,2.739c-56.625,0-84.938-26.029-73.065-97.267l14.157-84.48h-35.286l10.274-61.648h35.514l8.22-50.689
			h76.261L-219.675-606.091z"/>
		<path fill="#FFFFFF" stroke="#000000" stroke-width="12" stroke-miterlimit="10" d="M-74.927-429.824h93.158L7.728-366.35
			h-189.967l7.764-45.665l114.163-130.603h-89.962l10.504-63.474H47l-7.764,46.121L-74.927-429.824z"/>
	</g>
</g>
<g id="assets-2048">
	<g id="clarification-2048">
		<path fill="#ED1C24" d="M-1930.954,153.861c15.325,0,22.881,9.366,22.881,23.521c0,4.257-0.851,7.45-1.17,8.408h-41.827
			c-1.384,9.898,4.683,16.283,14.581,16.283c8.089,0,13.624-4.683,16.284-7.769l7.13,5.748c-3.406,4.576-12.133,12.133-25.33,12.133
			c-15.326,0-24.479-10.112-24.479-24.266C-1962.884,168.122-1948.09,153.861-1930.954,153.861z M-1919.567,177.808
			c1.065-9.153-4.47-14.262-12.452-14.262c-7.982,0-15.006,5.535-17.241,14.262H-1919.567z"/>
		<path fill="#ED1C24" d="M-1891.047,133.852h11.601l-4.789,28.842c1.809-2.448,8.94-8.833,19.477-8.833
			c13.729,0,22.03,10.536,22.03,24.053c0,19.69-13.835,34.271-31.715,34.271c-10.749,0-16.178-6.706-17.348-8.622l-1.171,7.238
			h-10.962L-1891.047,133.852z M-1874.764,201.967c10.75,0,20.115-9.047,20.115-22.137c0-9.26-5.321-15.646-13.729-15.646
			c-10.643,0-20.115,9.685-20.115,22.67C-1888.493,195.475-1883.598,201.967-1874.764,201.967z"/>
		<path fill="#ED1C24" d="M-1803.035,153.861c15.218,0,25.224,10.536,25.224,24.799c0,18.837-15.753,33.525-34.59,33.525
			c-15.22,0-25.224-10.324-25.224-24.691C-1837.625,168.549-1821.66,153.861-1803.035,153.861z M-1810.911,201.861
			c11.601,0,21.393-9.578,21.393-21.818c0-9.154-5.961-15.859-15.114-15.859c-11.707,0-21.179,9.792-21.179,22.031
			C-1825.811,195.368-1819.958,201.861-1810.911,201.861z"/>
		<path fill="#ED1C24" d="M-1738.011,153.861c15.219,0,25.223,10.536,25.223,24.799c0,18.837-15.751,33.525-34.589,33.525
			c-15.219,0-25.224-10.324-25.224-24.691C-1772.601,168.549-1756.637,153.861-1738.011,153.861z M-1745.887,201.861
			c11.601,0,21.392-9.578,21.392-21.818c0-9.154-5.959-15.859-15.113-15.859c-11.707,0-21.178,9.792-21.178,22.031
			C-1760.786,195.368-1754.934,201.861-1745.887,201.861z"/>
		<path fill="#ED1C24" d="M-1695.444,133.852h11.601l-7.557,45.126l23.839-23.734h13.837l-25.969,25.331l18.199,30.226h-12.877
			l-17.456-29.162l-4.896,29.162h-11.6L-1695.444,133.852z"/>
		<path fill="#ED1C24" d="M-1618.077,164.823h-6.066l1.597-9.579h6.065l0.426-2.448c2.448-14.155,12.24-18.838,22.139-18.838
			c2.235,0,4.044,0.213,4.044,0.213l-1.597,9.898c0,0-1.491-0.213-2.767-0.213c-5.641,0-9.046,2.874-10.217,9.152l-0.425,2.235
			h10.749l-1.597,9.579h-10.749l-7.663,45.979h-11.601L-1618.077,164.823z"/>
		<path fill="#ED1C24" d="M-1560.075,165.568c-12.133,0-17.136,9.259-19.158,21.286l-4.044,23.947h-11.602l9.26-55.557h11.388
			l-1.383,8.728c2.98-5.535,9.685-10.111,17.561-10.111L-1560.075,165.568z"/>
		<path fill="#ED1C24" d="M-1534.961,175.359c6.386,0,10.749,2.129,12.665,4.044l0.851-5.215c1.065-6.386-2.767-10.217-10.11-10.217
			c-6.173,0-11.601,2.129-15.965,4.363l-3.512-8.089c5.002-2.874,12.772-6.386,22.031-6.386c16.497,0,20.861,8.939,18.838,21.073
			l-5.96,35.867h-10.11l-0.214-4.151c-3.404,3.192-8.301,5.535-15.219,5.535c-10.537,0-18.199-6.279-18.199-15.965
			C-1559.865,184.193-1549.116,175.359-1534.961,175.359z M-1537.729,202.925c7.451,0,13.517-4.471,13.517-10.963
			c0-5.002-4.044-8.195-10.324-8.195c-7.769,0-13.517,4.683-13.517,10.856C-1548.053,199.413-1544.114,202.925-1537.729,202.925z"/>
		<path fill="#ED1C24" d="M-1425.45,210.801h-11.494l5.534-33.312c1.491-8.621-1.49-13.198-8.407-13.198
			c-6.493,0-12.133,4.79-13.517,13.304l-5.534,33.206h-11.602l5.748-34.377c1.278-7.557-2.022-12.133-8.621-12.133
			c-6.28,0-12.027,5.109-13.304,13.091l-5.64,33.419h-11.601l9.259-55.557h11.388c-0.746,4.684-1.171,7.238-1.171,7.238
			c2.769-4.258,8.94-8.622,16.497-8.622c7.77,0,12.665,3.619,14.368,9.26c4.258-5.854,11.069-9.26,18.732-9.26
			c12.559,0,17.454,8.622,15.432,20.647L-1425.45,210.801z"/>
		<path fill="#ED1C24" d="M-1380.116,153.861c15.326,0,22.882,9.366,22.882,23.521c0,4.257-0.851,7.45-1.171,8.408h-41.827
			c-1.383,9.898,4.683,16.283,14.582,16.283c8.089,0,13.624-4.683,16.283-7.769l7.131,5.748
			c-3.406,4.576-12.133,12.133-25.33,12.133c-15.327,0-24.48-10.112-24.48-24.266
			C-1412.046,168.122-1397.252,153.861-1380.116,153.861z M-1368.729,177.808c1.064-9.153-4.471-14.262-12.452-14.262
			c-7.983,0-15.006,5.535-17.243,14.262H-1368.729z"/>
		<path fill="#ED1C24" d="M-1309.239,170.996l-19.156,39.806h-12.772l-8.408-55.557h12.453l5.003,42.572
			c0,0-0.107-0.212,19.688-42.572h11.389l5.534,42.572l19.157-42.572h12.772l-26.927,55.557h-12.877L-1309.239,170.996z"/>
		<path fill="#ED1C24" d="M-1230.275,153.861c15.219,0,25.224,10.536,25.224,24.799c0,18.837-15.751,33.525-34.59,33.525
			c-15.219,0-25.223-10.324-25.223-24.691C-1264.864,168.549-1248.899,153.861-1230.275,153.861z M-1238.149,201.861
			c11.601,0,21.392-9.578,21.392-21.818c0-9.154-5.961-15.859-15.113-15.859c-11.707,0-21.179,9.792-21.179,22.031
			C-1253.05,195.368-1247.196,201.861-1238.149,201.861z"/>
		<path fill="#ED1C24" d="M-1165.783,165.568c-12.133,0-17.135,9.259-19.158,21.286l-4.044,23.947h-11.599l9.258-55.557h11.387
			l-1.383,8.728c2.979-5.535,9.685-10.111,17.56-10.111L-1165.783,165.568z"/>
		<path fill="#ED1C24" d="M-1151.844,133.852h11.601l-7.557,45.126l23.84-23.734h13.836l-25.969,25.331l18.199,30.226h-12.877
			l-17.455-29.162l-4.896,29.162h-11.601L-1151.844,133.852z"/>
	</g>
	<g id="logo-2048">
		<path fill="#FFFFFF" stroke="#000000" stroke-width="20" stroke-miterlimit="10" d="M-2797.453,38.569H-2945l114.444-683.825
			h157.951l-37.833,225.104c12.295-12.295,65.261-50.129,140.926-50.129c124.848,0,195.784,87.016,195.784,212.81
			c0,177.813-129.577,308.335-291.312,308.335c-72.828,0-114.444-34.995-125.794-51.074L-2797.453,38.569z M-2664.093-87.224
			c72.828,0,129.577-58.641,129.577-143.765c0-59.586-33.104-100.256-88.907-100.256c-71.882,0-129.577,55.803-129.577,144.71
			C-2752.999-131.678-2722.733-87.224-2664.093-87.224z"/>
		<path fill="#FFFFFF" stroke="#000000" stroke-width="20" stroke-miterlimit="10" d="M-2239.423-645.256h157.951l-114.444,683.825
			h-157.951L-2239.423-645.256z"/>
		<polygon fill="#FFFFFF" stroke="#000000" stroke-width="20" stroke-miterlimit="10" points="-1907,-271 -1863,-541 
			-1844,-645.256 -2007,-646 -2019,-577 -2077,-267 -2094,-176 -1995,-176 -2077,271 -1832,-271 		"/>
		<path fill="#FFFFFF" stroke="#000000" stroke-width="20" stroke-miterlimit="10" d="M-1577.336-457.984h97.163l-22.463,127.685
			h-96.454l-30.266,182.543c-7.566,43.507,19.863,53.911,52.02,53.911c8.512,0,16.08,0,26.483-0.945l-22.7,135.251
			c0,0-21.753,5.675-61.478,5.675c-117.281,0-175.922-53.912-151.331-201.458l29.32-174.976h-73.083l21.281-127.685h73.556
			l17.024-104.985h157.952L-1577.336-457.984z"/>
		<path fill="#FFFFFF" stroke="#000000" stroke-width="20" stroke-miterlimit="10" d="M-1277.534-92.899h192.947l-21.754,131.468
			H-1499.8l16.079-94.582l236.454-270.503h-186.326l21.754-131.468H-1025l-16.079,95.527L-1277.534-92.899z"/>
	</g>
	<g>
	</g>
	<g>
	</g>
	<g>
	</g>
	<g>
	</g>
	<g>
	</g>
	<g>
	</g>
	<g>
	</g>
	<g>
	</g>
	<g>
	</g>
	<g>
	</g>
	<g>
	</g>
	<g>
	</g>
	<g>
	</g>
	<g>
	</g>
	<g>
	</g>
</g>
</svg>
