<svg xmlns="http://www.w3.org/2000/svg" viewBox="0 0 2048 1154"><g fill="#FFF" stroke="#000" stroke-width="20" stroke-miterlimit="10"><path d="M210.547 809.569H63l114.444-683.825h157.951l-37.833 225.104c12.295-12.295 65.261-50.129 140.926-50.129 124.848 0 195.784 87.016 195.784 212.81 0 177.813-129.577 308.335-291.312 308.335-72.828 0-114.444-34.995-125.794-51.074l-6.619 38.779zm133.36-125.793c72.828 0 129.577-58.641 129.577-143.765 0-59.586-33.104-100.256-88.907-100.256-71.882 0-129.577 55.803-129.577 144.71.001 54.857 30.267 99.311 88.907 99.311zM768.577 125.744h157.951L812.084 809.569H654.133l114.444-683.825zM1101 500l44-270 19-104.256-163-.744-12 69-58 310-17 91h99l-82 447 245-542zM1430.664 313.016h97.163l-22.463 127.685h-96.454l-30.266 182.543c-7.566 43.507 19.863 53.911 52.02 53.911 8.512 0 16.08 0 26.483-.945l-22.7 135.251s-21.753 5.675-61.478 5.675c-117.281 0-175.922-53.912-151.331-201.458l29.32-174.976h-73.083l21.281-127.685h73.556l17.024-104.985h157.952l-17.024 104.984zM1730.466 678.101h192.947l-21.754 131.468H1508.2l16.079-94.582 236.454-270.503h-186.326l21.754-131.468H1983l-16.079 95.527-236.455 269.558z"/></g><g fill="#ED1C24"><path d="M1077.046 924.861c15.325 0 22.881 9.366 22.881 23.521 0 4.257-.851 7.45-1.17 8.408h-41.827c-1.384 9.898 4.683 16.283 14.581 16.283 8.089 0 13.624-4.683 16.284-7.769l7.13 5.748c-3.406 4.576-12.133 12.133-25.33 12.133-15.326 0-24.479-10.112-24.479-24.266 0-19.797 14.794-34.058 31.93-34.058zm11.387 23.947c1.065-9.153-4.47-14.262-12.452-14.262s-15.006 5.535-17.241 14.262h29.693zM1116.953 904.852h11.601l-4.789 28.842c1.809-2.448 8.94-8.833 19.477-8.833 13.729 0 22.03 10.536 22.03 24.053 0 19.69-13.835 34.271-31.715 34.271-10.749 0-16.178-6.706-17.348-8.622l-1.171 7.238h-10.962l12.877-76.949zm16.283 68.115c10.75 0 20.115-9.047 20.115-22.137 0-9.26-5.321-15.646-13.729-15.646-10.643 0-20.115 9.685-20.115 22.67 0 8.621 4.895 15.113 13.729 15.113zM1204.965 924.861c15.218 0 25.224 10.536 25.224 24.799 0 18.837-15.753 33.525-34.59 33.525-15.22 0-25.224-10.324-25.224-24.691 0-18.945 15.965-33.633 34.59-33.633zm-7.876 48c11.601 0 21.393-9.578 21.393-21.818 0-9.154-5.961-15.859-15.114-15.859-11.707 0-21.179 9.792-21.179 22.031 0 9.153 5.853 15.646 14.9 15.646zM1269.989 924.861c15.219 0 25.223 10.536 25.223 24.799 0 18.837-15.751 33.525-34.589 33.525-15.219 0-25.224-10.324-25.224-24.691 0-18.945 15.964-33.633 34.59-33.633zm-7.876 48c11.601 0 21.392-9.578 21.392-21.818 0-9.154-5.959-15.859-15.113-15.859-11.707 0-21.178 9.792-21.178 22.031 0 9.153 5.852 15.646 14.899 15.646zM1312.556 904.852h11.601l-7.557 45.126 23.839-23.734h13.837l-25.969 25.331 18.199 30.226h-12.877l-17.456-29.162-4.896 29.162h-11.6l12.879-76.949zM1389.923 935.823h-6.066l1.597-9.579h6.065l.426-2.448c2.448-14.155 12.24-18.838 22.139-18.838 2.235 0 4.044.213 4.044.213l-1.597 9.898s-1.491-.213-2.767-.213c-5.641 0-9.046 2.874-10.217 9.152l-.425 2.235h10.749l-1.597 9.579h-10.749l-7.663 45.979h-11.601l7.662-45.978zM1447.925 936.568c-12.133 0-17.136 9.259-19.158 21.286l-4.044 23.947h-11.602l9.26-55.557h11.388l-1.383 8.728c2.98-5.535 9.685-10.111 17.561-10.111l-2.022 11.707zM1473.039 946.359c6.386 0 10.749 2.129 12.665 4.044l.851-5.215c1.065-6.386-2.767-10.217-10.11-10.217-6.173 0-11.601 2.129-15.965 4.363l-3.512-8.089c5.002-2.874 12.772-6.386 22.031-6.386 16.497 0 20.861 8.939 18.838 21.073l-5.96 35.867h-10.11l-.214-4.151c-3.404 3.192-8.301 5.535-15.219 5.535-10.537 0-18.199-6.279-18.199-15.965 0-12.025 10.749-20.859 24.904-20.859zm-2.768 27.566c7.451 0 13.517-4.471 13.517-10.963 0-5.002-4.044-8.195-10.324-8.195-7.769 0-13.517 4.683-13.517 10.856 0 4.79 3.939 8.302 10.324 8.302zM1582.55 981.801h-11.494l5.534-33.312c1.491-8.621-1.49-13.198-8.407-13.198-6.493 0-12.133 4.79-13.517 13.304l-5.534 33.206h-11.602l5.748-34.377c1.278-7.557-2.022-12.133-8.621-12.133-6.28 0-12.027 5.109-13.304 13.091l-5.64 33.419h-11.601l9.259-55.557h11.388c-.746 4.684-1.171 7.238-1.171 7.238 2.769-4.258 8.94-8.622 16.497-8.622 7.77 0 12.665 3.619 14.368 9.26 4.258-5.854 11.069-9.26 18.732-9.26 12.559 0 17.454 8.622 15.432 20.647l-6.067 36.294zM1627.884 924.861c15.326 0 22.882 9.366 22.882 23.521 0 4.257-.851 7.45-1.171 8.408h-41.827c-1.383 9.898 4.683 16.283 14.582 16.283 8.089 0 13.624-4.683 16.283-7.769l7.131 5.748c-3.406 4.576-12.133 12.133-25.33 12.133-15.327 0-24.48-10.112-24.48-24.266 0-19.797 14.794-34.058 31.93-34.058zm11.387 23.947c1.064-9.153-4.471-14.262-12.452-14.262-7.983 0-15.006 5.535-17.243 14.262h29.695zM1698.761 941.996l-19.156 39.806h-12.772l-8.408-55.557h12.453l5.003 42.572s-.107-.212 19.688-42.572h11.389l5.534 42.572 19.157-42.572h12.772l-26.927 55.557h-12.877l-5.856-39.806zM1777.725 924.861c15.219 0 25.224 10.536 25.224 24.799 0 18.837-15.751 33.525-34.59 33.525-15.219 0-25.223-10.324-25.223-24.691 0-18.945 15.965-33.633 34.589-33.633zm-7.874 48c11.601 0 21.392-9.578 21.392-21.818 0-9.154-5.961-15.859-15.113-15.859-11.707 0-21.179 9.792-21.179 22.031-.001 9.153 5.853 15.646 14.9 15.646zM1842.217 936.568c-12.133 0-17.135 9.259-19.158 21.286l-4.044 23.947h-11.599l9.258-55.557h11.387l-1.383 8.728c2.979-5.535 9.685-10.111 17.56-10.111l-2.021 11.707zM1856.156 904.852h11.601l-7.557 45.126 23.84-23.734h13.836l-25.969 25.331 18.199 30.226h-12.877l-17.455-29.162-4.896 29.162h-11.601l12.879-76.949z"/></g></svg>