<svg xmlns="http://www.w3.org/2000/svg" viewBox="0 0 128 128"><path fill="#F00" d="M64 109c-24.812 0-45-20.187-45-45s20.188-45 45-45c24.813 0 45 20.187 45 45s-20.187 45-45 45z"/><path d="M64 22c23.159 0 42 18.841 42 42s-18.841 42-42 42-42-18.841-42-42 18.841-42 42-42m0-6c-26.51 0-48 21.49-48 48s21.49 48 48 48 48-21.49 48-48-21.49-48-48-48z"/><g><path fill="#FFF" d="M59.772 69H49.398l29.311-54.099L68.265 59h10.43l-29.426 53.265"/><path d="M76 22l-9 38h10l-25 45.253L61.044 68h-9.967L76 22m5.418-14.199l-7.177 13.246-24.923 46L47.719 70H58.5l-8.443 34.781-3.52 14.496 7.214-13.057 25-45.253L80.39 58H69.529l8.417-35.539 3.472-14.66z"/></g></svg>