<svg xmlns="http://www.w3.org/2000/svg" viewBox="0 0 256 256"><path fill="#F00" d="M128 225c-53.486 0-97-43.514-97-97s43.514-97 97-97 97 43.514 97 97-43.514 97-97 97z"/><path d="M128 38c49.626 0 90 40.374 90 90s-40.374 90-90 90-90-40.374-90-90 40.374-90 90-90m0-14C70.562 24 24 70.562 24 128s46.562 104 104 104 104-46.562 104-104S185.438 24 128 24z"/><g><path fill="#FFF" d="M119.463 144H96.764l60.492-120.985L136.474 120h22.9L98.557 231.109"/><path d="M152 38l-18 84h22l-52 95 18-75h-22l52-104m10.513-29.97l-14.09 28.181-52 104L93.528 146h23.399l-16.816 70.066-6.997 29.152 14.395-26.298 52-95 3.241-5.92h-23.802l16.963-79.162 6.602-30.808z"/></g></svg>