<svg xmlns="http://www.w3.org/2000/svg" viewBox="0 0 1024 580"><g fill="#FFF" stroke="#000" stroke-width="12" stroke-miterlimit="10"><path d="M119.238 404.65H48l55.255-330.159h76.261L161.25 183.174c5.936-5.936 31.509-24.202 68.042-24.202 60.277 0 94.527 42.012 94.527 102.747 0 85.851-62.562 148.869-140.649 148.869-35.163 0-55.255-16.896-60.736-24.659l-3.196 18.721zm64.388-60.734c35.161 0 62.561-28.312 62.561-69.412 0-28.769-15.982-48.405-42.925-48.405-34.705 0-62.561 26.943-62.561 69.867-.001 26.487 14.612 47.95 42.925 47.95zM388.662 74.491h76.26L409.667 404.65h-76.261l55.256-330.159zM549 255l22-130 9-51h-80l-5 33-27 150-8 43h46l-39 216 119-261zM708.325 164.909h46.912l-10.846 61.648h-46.569L683.21 314.69c-3.654 21.006 9.589 26.029 25.115 26.029 4.11 0 7.764 0 12.787-.457l-10.959 65.302s-10.503 2.739-29.682 2.739c-56.625 0-84.938-26.029-73.065-97.267l14.157-84.48h-35.286l10.274-61.648h35.514l8.22-50.689h76.261l-8.221 50.69zM853.073 341.176h93.158l-10.503 63.474H745.761l7.764-45.665 114.163-130.603h-89.962l10.504-63.474H975l-7.764 46.121-114.163 130.147z"/></g><g fill="#ED1C24"><path d="M578.479 457.678c19.266 0 28.765 11.774 28.765 29.57 0 5.352-1.069 9.366-1.471 10.571H553.19c-1.739 12.443 5.887 20.469 18.33 20.469 10.17 0 17.127-5.886 20.472-9.767l8.964 7.226C596.674 521.5 585.702 531 569.111 531c-19.267 0-30.773-12.712-30.773-30.506 0-24.888 18.598-42.816 40.141-42.816zm14.315 30.105c1.338-11.507-5.619-17.93-15.655-17.93-10.035 0-18.865 6.958-21.674 17.93h37.329zM628.646 432.523h14.585l-6.021 36.26c2.274-3.077 11.24-11.105 24.485-11.105 17.258 0 27.696 13.246 27.696 30.238 0 24.753-17.394 43.083-39.872 43.083-13.514 0-20.337-8.43-21.809-10.838l-1.474 9.1h-13.78l16.19-96.738zm20.472 85.632c13.513 0 25.287-11.374 25.287-27.83 0-11.641-6.688-19.669-17.259-19.669-13.379 0-25.288 12.175-25.288 28.499 0 10.839 6.155 19 17.26 19zM739.292 457.678c19.132 0 31.712 13.246 31.712 31.176 0 23.681-19.805 42.146-43.487 42.146-19.133 0-31.709-12.978-31.709-31.041 0-23.816 20.069-42.281 43.484-42.281zm-9.9 60.344c14.584 0 26.894-12.042 26.894-27.429 0-11.507-7.493-19.937-19-19.937-14.718 0-26.626 12.31-26.626 27.695-.001 11.508 7.358 19.671 18.732 19.671zM821.037 457.678c19.133 0 31.709 13.246 31.709 31.176 0 23.681-19.801 42.146-43.484 42.146-19.133 0-31.71-12.978-31.71-31.041.001-23.816 20.07-42.281 43.485-42.281zm-9.901 60.344c14.585 0 26.893-12.042 26.893-27.429 0-11.507-7.49-19.937-18.999-19.937-14.718 0-26.625 12.31-26.625 27.695-.001 11.508 7.358 19.671 18.731 19.671zM874.551 432.523h14.583l-9.5 56.731 29.97-29.837H927l-32.647 31.844 22.878 38h-16.188L879.099 492.6l-6.155 36.662H858.36l16.191-96.739z"/></g></svg>