<svg xmlns="http://www.w3.org/2000/svg" width="48" height="24" viewBox="0 0 48 24" preserveAspectRatio="xMidYMid meet" version="1.1" enable-background="new 0 0 48 24"><polygon points="8.1 14.2 5.7 17.3 3.8 15.7 6.3 12.9 2.7 11.6 3.6 9.4 7 10.8 7 7.1 9.3 7.1 9.2 10.8 12.7 9.4 13.5 11.6 9.9 13 12.4 15.7 10.6 17.3" fill="#000"/><path d="M8.8 7.6v4l3.7-1.5 0.5 1.2 -3.8 1.5 2.6 2.9 -1.1 0.9 -2.5-3.1 -2.5 3.1 -1.1-0.9 2.6-2.9 -3.8-1.5 0.5-1.2 3.7 1.5v-4H8.8M9.8 6.6h-1H7.5h-1v1 2.5L4.2 9.2 3.3 8.8 2.9 9.7l-0.5 1.2L2 11.8l1 0.4 2.4 0.9L3.8 15l-0.7 0.8 0.8 0.7L5 17.3 5.8 18l0.6-0.8L8.1 15l1.8 2.2 0.6 0.8 0.8-0.7 1.1-0.9 0.8-0.7L12.5 15l-1.7-1.8 2.4-0.9 0.9-0.4L13.7 11l-0.5-1.2 -0.2-1 -1 0.4 -2.3 0.9V7.6L9.8 6.6 9.8 6.6z" fill="#FFF"/><polygon points="24.1 14.2 21.6 17.3 19.8 15.7 22.2 12.9 18.7 11.6 19.5 9.4 23 10.8 22.9 7.1 25.2 7.1 25.2 10.8 28.6 9.4 29.5 11.6 25.9 13 28.4 15.7 26.5 17.3" fill="#000"/><path d="M24.7 7.6v4l3.7-1.5 0.5 1.2L25 12.7l2.6 2.9 -1.1 0.9L24 13.4l-2.5 3.1 -1.1-0.9 2.6-2.9 -3.7-1.5 0.5-1.2 3.7 1.5v-4h1.2M25.7 6.6h-1 -1.3 -1v1 2.5l-2.3-0.9 -0.9-0.4 -0.4 0.9 -0.5 1.2 -0.4 0.9 0.9 0.4 2.4 0.9L19.7 15 19 15.8l0.8 0.7 1.1 0.9 0.8 0.6 0.6-0.8L24 15l1.7 2.2 0.6 0.8 0.8-0.7 1.1-0.9 0.8-0.7L28.4 15l-1.7-1.8 2.4-0.9 0.9-0.4L29.6 11l-0.5-1.2 -0.4-0.9L28 9.2l-2.3 0.9V7.6 6.6L25.7 6.6z" fill="#FFF"/><polygon points="40 14.2 37.6 17.3 35.7 15.7 38.2 12.9 34.7 11.6 35.5 9.4 38.9 10.8 38.9 7.1 41.2 7.1 41.1 10.8 44.6 9.4 45.4 11.6 41.9 13 44.3 15.7 42.5 17.3" fill="#000"/><path d="M40.7 7.6v4l3.7-1.5 0.5 1.2L41 12.7l2.6 2.9 -1.1 0.9L40 13.4l-2.5 3.1 -1.1-0.9 2.6-2.9 -3.7-1.5 0.5-1.2 3.7 1.5v-4h1.2M41.7 6.6h-1 -1.3 -1v1 2.5l-2.3-0.9 -0.9-0.4 -0.4 0.9 -0.5 1.2L34 11.8l0.9 0.4 2.4 0.9L35.7 15 35 15.8l0.8 0.7 1.1 0.9 0.8 0.6 0.6-0.8L40 15l1.7 2.2 0.6 0.8 0.8-0.7 1.1-0.9 0.8-0.7L44.4 15l-1.7-1.8 2.4-0.9 0.9-0.4L45.6 11l-0.5-1.2 -0.4-0.9 -0.9 0.4 -2.3 0.9V7.7L41.7 6.6 41.7 6.6z" fill="#FFF"/></svg>